<?xml version="1.0" encoding="UTF-8"?>
<svg xmlns="http://www.w3.org/2000/svg" xmlns:xlink="http://www.w3.org/1999/xlink" width="24px" height="24px" viewBox="0 0 24 24" version="1.1">
<g id="surface1">
<path style=" stroke:none;fill-rule:nonzero;fill:rgb(84.705882%,84.705882%,98.823529%);fill-opacity:1;" d="M 11.117188 17.25 C 11.117188 18.003906 10.503906 18.617188 9.75 18.617188 C 8.996094 18.617188 8.382812 18.003906 8.382812 17.25 C 8.382812 16.496094 8.996094 15.882812 9.75 15.882812 C 10.503906 15.882812 11.117188 16.496094 11.117188 17.25 Z M 11.117188 17.25 "/>
<path style=" stroke:none;fill-rule:nonzero;fill:rgb(84.705882%,84.705882%,98.823529%);fill-opacity:1;" d="M 2.625 22.125 L 16.875 22.125 L 16.875 1.875 L 2.625 1.875 Z M 13.832031 17.847656 C 13.808594 18 13.691406 18.125 13.539062 18.160156 L 13.058594 18.265625 C 12.992188 18.472656 12.910156 18.675781 12.804688 18.871094 L 13.074219 19.285156 C 13.15625 19.417969 13.152344 19.589844 13.058594 19.714844 C 12.820312 20.035156 12.535156 20.320312 12.214844 20.558594 C 12.089844 20.652344 11.917969 20.65625 11.785156 20.574219 L 11.371094 20.304688 C 11.175781 20.410156 10.972656 20.492188 10.765625 20.558594 L 10.660156 21.039062 C 10.625 21.191406 10.5 21.308594 10.347656 21.332031 C 9.953125 21.390625 9.546875 21.390625 9.152344 21.332031 C 9 21.308594 8.875 21.191406 8.839844 21.039062 L 8.734375 20.558594 C 8.527344 20.492188 8.324219 20.410156 8.128906 20.304688 L 7.714844 20.574219 C 7.582031 20.65625 7.410156 20.652344 7.285156 20.558594 C 6.964844 20.320312 6.679688 20.035156 6.441406 19.714844 C 6.347656 19.589844 6.34375 19.417969 6.425781 19.285156 L 6.695312 18.871094 C 6.589844 18.675781 6.507812 18.472656 6.441406 18.265625 L 5.960938 18.160156 C 5.808594 18.125 5.691406 18 5.667969 17.847656 C 5.609375 17.453125 5.609375 17.046875 5.667969 16.652344 C 5.691406 16.5 5.808594 16.375 5.960938 16.339844 L 6.441406 16.234375 C 6.507812 16.027344 6.589844 15.824219 6.695312 15.628906 L 6.425781 15.214844 C 6.34375 15.082031 6.347656 14.910156 6.441406 14.785156 C 6.679688 14.464844 6.964844 14.179688 7.285156 13.941406 C 7.410156 13.847656 7.582031 13.84375 7.714844 13.925781 L 8.128906 14.195312 C 8.324219 14.089844 8.527344 14.007812 8.734375 13.941406 L 8.839844 13.460938 C 8.875 13.308594 9 13.191406 9.152344 13.167969 C 9.546875 13.109375 9.953125 13.109375 10.347656 13.167969 C 10.5 13.191406 10.625 13.308594 10.660156 13.460938 L 10.765625 13.941406 C 10.972656 14.007812 11.175781 14.089844 11.371094 14.195312 L 11.785156 13.925781 C 11.917969 13.84375 12.089844 13.847656 12.214844 13.941406 C 12.535156 14.179688 12.820312 14.464844 13.058594 14.785156 C 13.152344 14.910156 13.15625 15.082031 13.074219 15.214844 L 12.804688 15.628906 C 12.910156 15.824219 12.992188 16.027344 13.058594 16.234375 L 13.539062 16.339844 C 13.691406 16.375 13.808594 16.5 13.832031 16.652344 C 13.890625 17.046875 13.890625 17.453125 13.832031 17.847656 Z M 4.125 3 C 4.125 2.792969 4.292969 2.625 4.5 2.625 L 15 2.625 C 15.207031 2.625 15.375 2.792969 15.375 3 L 15.375 7.5 C 15.375 7.707031 15.207031 7.875 15 7.875 L 4.5 7.875 C 4.292969 7.875 4.125 7.707031 4.125 7.5 Z M 4.5 8.625 L 15 8.625 C 15.207031 8.625 15.375 8.792969 15.375 9 C 15.375 9.207031 15.207031 9.375 15 9.375 L 4.5 9.375 C 4.292969 9.375 4.125 9.207031 4.125 9 C 4.125 8.792969 4.292969 8.625 4.5 8.625 Z M 4.5 10.125 L 15 10.125 C 15.207031 10.125 15.375 10.292969 15.375 10.5 C 15.375 10.707031 15.207031 10.875 15 10.875 L 4.5 10.875 C 4.292969 10.875 4.125 10.707031 4.125 10.5 C 4.125 10.292969 4.292969 10.125 4.5 10.125 Z M 4.5 11.625 L 15 11.625 C 15.207031 11.625 15.375 11.792969 15.375 12 C 15.375 12.207031 15.207031 12.375 15 12.375 L 4.5 12.375 C 4.292969 12.375 4.125 12.207031 4.125 12 C 4.125 11.792969 4.292969 11.625 4.5 11.625 Z M 4.5 11.625 "/>
<path style=" stroke:none;fill-rule:nonzero;fill:rgb(0%,0%,0%);fill-opacity:1;" d="M 17.25 1.125 L 2.25 1.125 C 2.042969 1.125 1.875 1.292969 1.875 1.5 L 1.875 22.5 C 1.875 22.707031 2.042969 22.875 2.25 22.875 L 17.25 22.875 C 17.457031 22.875 17.625 22.707031 17.625 22.5 L 17.625 1.5 C 17.625 1.292969 17.457031 1.125 17.25 1.125 Z M 16.875 22.125 L 2.625 22.125 L 2.625 1.875 L 16.875 1.875 Z M 16.875 22.125 "/>
<path style=" stroke:none;fill-rule:nonzero;fill:rgb(99.215686%,74.901961%,0%);fill-opacity:1;" d="M 19.125 6.375 L 21.375 6.375 L 21.375 19.125 L 19.125 19.125 Z M 19.125 6.375 "/>
<path style=" stroke:none;fill-rule:nonzero;fill:rgb(94.117647%,21.960784%,0%);fill-opacity:1;" d="M 19.125 21 C 19.125 21.621094 19.628906 22.125 20.25 22.125 C 20.871094 22.125 21.375 21.621094 21.375 21 L 21.375 19.875 L 19.125 19.875 Z M 19.125 21 "/>
<path style=" stroke:none;fill-rule:nonzero;fill:rgb(100%,80.784314%,74.901961%);fill-opacity:1;" d="M 19.269531 5.625 L 21.230469 5.625 L 20.25 2.6875 Z M 19.269531 5.625 "/>
<path style=" stroke:none;fill-rule:nonzero;fill:rgb(0%,0%,0%);fill-opacity:1;" d="M 22.101562 5.875 L 20.605469 1.382812 C 20.554688 1.226562 20.410156 1.125 20.25 1.125 C 20.085938 1.125 19.945312 1.226562 19.894531 1.382812 L 18.398438 5.875 C 18.382812 5.914062 18.375 5.957031 18.375 6 L 18.375 21 C 18.375 22.035156 19.214844 22.875 20.25 22.875 C 21.285156 22.875 22.125 22.035156 22.125 21 L 22.125 6 C 22.125 5.957031 22.117188 5.914062 22.101562 5.875 Z M 21.375 21 C 21.375 21.621094 20.871094 22.125 20.25 22.125 C 19.628906 22.125 19.125 21.621094 19.125 21 L 19.125 19.875 L 21.375 19.875 Z M 21.375 19.125 L 19.125 19.125 L 19.125 6.375 L 21.375 6.375 Z M 19.269531 5.625 L 20.25 2.6875 L 21.230469 5.625 Z M 19.269531 5.625 "/>
<path style=" stroke:none;fill-rule:nonzero;fill:rgb(0%,0%,0%);fill-opacity:1;" d="M 4.5 9.375 L 15 9.375 C 15.207031 9.375 15.375 9.207031 15.375 9 C 15.375 8.792969 15.207031 8.625 15 8.625 L 4.5 8.625 C 4.292969 8.625 4.125 8.792969 4.125 9 C 4.125 9.207031 4.292969 9.375 4.5 9.375 Z M 4.5 9.375 "/>
<path style=" stroke:none;fill-rule:nonzero;fill:rgb(0%,0%,0%);fill-opacity:1;" d="M 4.5 10.875 L 15 10.875 C 15.207031 10.875 15.375 10.707031 15.375 10.5 C 15.375 10.292969 15.207031 10.125 15 10.125 L 4.5 10.125 C 4.292969 10.125 4.125 10.292969 4.125 10.5 C 4.125 10.707031 4.292969 10.875 4.5 10.875 Z M 4.5 10.875 "/>
<path style=" stroke:none;fill-rule:nonzero;fill:rgb(0%,0%,0%);fill-opacity:1;" d="M 4.5 12.375 L 15 12.375 C 15.207031 12.375 15.375 12.207031 15.375 12 C 15.375 11.792969 15.207031 11.625 15 11.625 L 4.5 11.625 C 4.292969 11.625 4.125 11.792969 4.125 12 C 4.125 12.207031 4.292969 12.375 4.5 12.375 Z M 4.5 12.375 "/>
<path style=" stroke:none;fill-rule:nonzero;fill:rgb(29.411765%,72.54902%,92.54902%);fill-opacity:1;" d="M 4.875 3.375 L 14.625 3.375 L 14.625 7.125 L 4.875 7.125 Z M 4.875 3.375 "/>
<path style=" stroke:none;fill-rule:nonzero;fill:rgb(0%,0%,0%);fill-opacity:1;" d="M 4.5 7.875 L 15 7.875 C 15.207031 7.875 15.375 7.707031 15.375 7.5 L 15.375 3 C 15.375 2.792969 15.207031 2.625 15 2.625 L 4.5 2.625 C 4.292969 2.625 4.125 2.792969 4.125 3 L 4.125 7.5 C 4.125 7.707031 4.292969 7.875 4.5 7.875 Z M 4.875 3.375 L 14.625 3.375 L 14.625 7.125 L 4.875 7.125 Z M 4.875 3.375 "/>
<path style=" stroke:none;fill-rule:nonzero;fill:rgb(99.215686%,74.901961%,0%);fill-opacity:1;" d="M 12.390625 16.636719 C 12.320312 16.347656 12.207031 16.070312 12.046875 15.816406 C 11.972656 15.695312 11.972656 15.539062 12.050781 15.414062 L 12.296875 15.035156 C 12.195312 14.917969 12.082031 14.804688 11.964844 14.703125 L 11.585938 14.949219 C 11.460938 15.027344 11.304688 15.027344 11.183594 14.953125 C 10.929688 14.792969 10.652344 14.679688 10.363281 14.609375 C 10.21875 14.578125 10.109375 14.464844 10.078125 14.324219 L 9.984375 13.882812 C 9.828125 13.871094 9.671875 13.871094 9.515625 13.882812 L 9.421875 14.324219 C 9.390625 14.464844 9.28125 14.578125 9.136719 14.609375 C 8.847656 14.679688 8.570312 14.792969 8.316406 14.953125 C 8.195312 15.027344 8.039062 15.027344 7.914062 14.949219 L 7.535156 14.703125 C 7.417969 14.804688 7.304688 14.917969 7.203125 15.035156 L 7.449219 15.414062 C 7.527344 15.539062 7.527344 15.695312 7.453125 15.816406 C 7.292969 16.070312 7.179688 16.347656 7.109375 16.636719 C 7.078125 16.78125 6.964844 16.890625 6.824219 16.921875 L 6.382812 17.015625 C 6.371094 17.171875 6.371094 17.328125 6.382812 17.484375 L 6.824219 17.578125 C 6.964844 17.609375 7.078125 17.71875 7.109375 17.863281 C 7.179688 18.152344 7.292969 18.429688 7.453125 18.683594 C 7.527344 18.804688 7.527344 18.960938 7.449219 19.085938 L 7.203125 19.464844 C 7.304688 19.582031 7.417969 19.695312 7.535156 19.796875 L 7.914062 19.550781 C 8.039062 19.472656 8.195312 19.472656 8.316406 19.546875 C 8.570312 19.707031 8.847656 19.820312 9.136719 19.890625 C 9.28125 19.921875 9.390625 20.035156 9.421875 20.175781 L 9.515625 20.617188 C 9.671875 20.628906 9.828125 20.628906 9.984375 20.617188 L 10.078125 20.175781 C 10.109375 20.035156 10.21875 19.921875 10.363281 19.890625 C 10.652344 19.820312 10.929688 19.707031 11.183594 19.546875 C 11.304688 19.472656 11.460938 19.472656 11.585938 19.550781 L 11.964844 19.796875 C 12.082031 19.695312 12.195312 19.582031 12.296875 19.464844 L 12.050781 19.085938 C 11.972656 18.960938 11.972656 18.804688 12.046875 18.683594 C 12.207031 18.429688 12.320312 18.152344 12.390625 17.863281 C 12.421875 17.71875 12.535156 17.609375 12.675781 17.578125 L 13.117188 17.484375 C 13.128906 17.328125 13.128906 17.171875 13.117188 17.015625 L 12.675781 16.921875 C 12.535156 16.890625 12.421875 16.78125 12.390625 16.636719 Z M 9.75 19.367188 C 8.582031 19.367188 7.632812 18.417969 7.632812 17.25 C 7.632812 16.082031 8.582031 15.132812 9.75 15.132812 C 10.917969 15.132812 11.867188 16.082031 11.867188 17.25 C 11.867188 18.417969 10.917969 19.367188 9.75 19.367188 Z M 9.75 19.367188 "/>
<path style=" stroke:none;fill-rule:nonzero;fill:rgb(0%,0%,0%);fill-opacity:1;" d="M 13.539062 16.339844 L 13.058594 16.234375 C 12.992188 16.027344 12.910156 15.824219 12.804688 15.628906 L 13.074219 15.214844 C 13.15625 15.082031 13.152344 14.910156 13.058594 14.785156 C 12.820312 14.464844 12.535156 14.179688 12.214844 13.941406 C 12.089844 13.847656 11.917969 13.84375 11.785156 13.925781 L 11.371094 14.195312 C 11.175781 14.089844 10.972656 14.007812 10.765625 13.941406 L 10.660156 13.460938 C 10.625 13.308594 10.5 13.191406 10.347656 13.167969 C 9.953125 13.109375 9.546875 13.109375 9.152344 13.167969 C 9 13.191406 8.875 13.308594 8.839844 13.460938 L 8.734375 13.941406 C 8.527344 14.007812 8.324219 14.089844 8.128906 14.195312 L 7.714844 13.925781 C 7.582031 13.84375 7.410156 13.847656 7.285156 13.941406 C 6.964844 14.179688 6.679688 14.464844 6.441406 14.785156 C 6.347656 14.910156 6.34375 15.082031 6.425781 15.214844 L 6.695312 15.628906 C 6.589844 15.824219 6.507812 16.027344 6.441406 16.234375 L 5.960938 16.339844 C 5.808594 16.375 5.691406 16.5 5.667969 16.652344 C 5.609375 17.046875 5.609375 17.453125 5.667969 17.847656 C 5.691406 18 5.808594 18.125 5.960938 18.160156 L 6.441406 18.265625 C 6.507812 18.472656 6.589844 18.675781 6.695312 18.871094 L 6.425781 19.285156 C 6.34375 19.417969 6.347656 19.589844 6.441406 19.714844 C 6.679688 20.035156 6.964844 20.320312 7.285156 20.558594 C 7.410156 20.652344 7.582031 20.65625 7.714844 20.574219 L 8.128906 20.304688 C 8.324219 20.410156 8.527344 20.492188 8.734375 20.558594 L 8.839844 21.039062 C 8.875 21.191406 9 21.308594 9.152344 21.332031 C 9.546875 21.390625 9.953125 21.390625 10.347656 21.332031 C 10.5 21.308594 10.625 21.191406 10.660156 21.039062 L 10.765625 20.558594 C 10.972656 20.492188 11.175781 20.410156 11.371094 20.304688 L 11.785156 20.574219 C 11.917969 20.65625 12.089844 20.652344 12.214844 20.558594 C 12.535156 20.320312 12.820312 20.035156 13.058594 19.714844 C 13.152344 19.589844 13.15625 19.417969 13.074219 19.285156 L 12.804688 18.871094 C 12.910156 18.675781 12.992188 18.472656 13.058594 18.265625 L 13.539062 18.160156 C 13.691406 18.125 13.808594 18 13.832031 17.847656 C 13.890625 17.453125 13.890625 17.046875 13.832031 16.652344 C 13.808594 16.5 13.691406 16.375 13.539062 16.339844 Z M 13.117188 17.484375 L 12.675781 17.578125 C 12.535156 17.609375 12.421875 17.71875 12.390625 17.863281 C 12.320312 18.152344 12.207031 18.429688 12.046875 18.683594 C 11.972656 18.804688 11.972656 18.960938 12.050781 19.085938 L 12.296875 19.464844 C 12.195312 19.582031 12.082031 19.695312 11.964844 19.796875 L 11.585938 19.550781 C 11.460938 19.472656 11.304688 19.472656 11.183594 19.546875 C 10.929688 19.707031 10.652344 19.820312 10.363281 19.890625 C 10.21875 19.921875 10.109375 20.035156 10.078125 20.175781 L 9.984375 20.617188 C 9.828125 20.628906 9.671875 20.628906 9.515625 20.617188 L 9.421875 20.175781 C 9.390625 20.035156 9.28125 19.921875 9.136719 19.890625 C 8.847656 19.820312 8.570312 19.707031 8.316406 19.546875 C 8.195312 19.472656 8.039062 19.472656 7.914062 19.550781 L 7.535156 19.796875 C 7.417969 19.695312 7.304688 19.582031 7.203125 19.464844 L 7.449219 19.085938 C 7.527344 18.960938 7.527344 18.804688 7.453125 18.683594 C 7.292969 18.429688 7.179688 18.152344 7.109375 17.863281 C 7.078125 17.71875 6.964844 17.609375 6.824219 17.578125 L 6.382812 17.484375 C 6.371094 17.328125 6.371094 17.171875 6.382812 17.015625 L 6.824219 16.921875 C 6.964844 16.890625 7.078125 16.78125 7.109375 16.636719 C 7.179688 16.347656 7.292969 16.070312 7.453125 15.816406 C 7.527344 15.695312 7.527344 15.539062 7.449219 15.414062 L 7.203125 15.035156 C 7.304688 14.917969 7.417969 14.804688 7.535156 14.703125 L 7.914062 14.949219 C 8.039062 15.027344 8.195312 15.027344 8.316406 14.953125 C 8.570312 14.792969 8.847656 14.679688 9.136719 14.609375 C 9.28125 14.578125 9.390625 14.464844 9.421875 14.324219 L 9.515625 13.882812 C 9.671875 13.871094 9.828125 13.871094 9.984375 13.882812 L 10.078125 14.324219 C 10.109375 14.464844 10.21875 14.578125 10.363281 14.609375 C 10.652344 14.679688 10.929688 14.792969 11.183594 14.953125 C 11.304688 15.027344 11.460938 15.027344 11.585938 14.949219 L 11.964844 14.703125 C 12.082031 14.804688 12.195312 14.917969 12.296875 15.035156 L 12.050781 15.414062 C 11.972656 15.539062 11.972656 15.695312 12.046875 15.816406 C 12.207031 16.070312 12.320312 16.347656 12.390625 16.636719 C 12.421875 16.78125 12.535156 16.890625 12.675781 16.921875 L 13.117188 17.015625 C 13.128906 17.171875 13.128906 17.328125 13.117188 17.484375 Z M 13.117188 17.484375 "/>
<path style=" stroke:none;fill-rule:nonzero;fill:rgb(0%,0%,0%);fill-opacity:1;" d="M 9.75 15.132812 C 8.582031 15.132812 7.632812 16.082031 7.632812 17.25 C 7.632812 18.417969 8.582031 19.367188 9.75 19.367188 C 10.917969 19.367188 11.867188 18.417969 11.867188 17.25 C 11.867188 16.082031 10.917969 15.132812 9.75 15.132812 Z M 9.75 18.621094 C 8.996094 18.621094 8.382812 18.007812 8.382812 17.253906 C 8.382812 16.496094 8.992188 15.882812 9.75 15.882812 C 10.503906 15.882812 11.117188 16.496094 11.117188 17.25 C 11.117188 18.003906 10.503906 18.617188 9.75 18.617188 Z M 9.75 18.621094 "/>
</g>
</svg>
